<svg width="208" height="40" viewBox="0 0 208 40" fill="none" xmlns="http://www.w3.org/2000/svg">
<g clip-path="url(#clip0_2682_2471)">
<path d="M120.654 34.9927H123.869V15.2301H128.386C130.302 15.2301 131.124 16.8655 131.124 18.2976V34.9927H134.337V18.296C134.337 16.9334 135.091 15.2285 137.007 15.2285H138.435C138.95 15.2192 139.461 15.312 139.94 15.5013C140.966 15.842 141.582 16.7267 141.582 18.2943V34.9927H144.804V18.296C144.804 15.1623 142.614 12.5033 139.467 12.5033H137.684C137.136 12.5711 136.589 12.5711 136.11 12.7083C135.153 12.9133 134.328 13.3896 133.517 14.276L133.031 14.8894L132.485 14.276C131.967 13.7065 131.332 13.2535 130.624 12.9473C129.917 12.6411 129.151 12.4886 128.38 12.5H120.649L120.654 34.9927ZM91.1006 34.9927H94.3145V15.2301H99.4456C101.361 15.2301 102.183 16.8655 102.183 18.2976V34.9927H105.398V18.296C105.398 15.0251 103.073 12.5033 99.7892 12.5033H91.1006V34.9927ZM111.419 34.9927H114.635V12.5033H111.419V34.9927ZM150.823 28.8578C150.823 33.8335 153.355 34.9927 158.278 34.9927C163.14 34.9927 165.733 33.7657 165.733 28.8578V18.296C165.733 15.1623 163.544 12.5033 160.397 12.5033H156.1C152.953 12.5033 150.831 15.1623 150.831 18.296L150.823 28.8578ZM156.844 32.1981C156.373 32.2126 155.905 32.1192 155.476 31.9252C154.518 31.4409 154.04 30.561 154.04 29.1984V18.296C154.04 16.9334 154.792 15.2285 156.708 15.2285H159.787C161.703 15.2285 162.524 16.8639 162.524 18.296V29.2065C162.524 30.5691 162.038 31.4554 161.087 31.9333C160.658 32.1273 160.19 32.2206 159.719 32.2061C158.763 32.2966 157.801 32.2966 156.846 32.2061M183.047 33.4315L183.321 35.272L186.263 34.7957C186.059 33.2959 186.059 31.7283 186.059 30.2284V4.66669H182.841V12.5033H176.753C173.604 12.5033 171.416 15.1607 171.416 18.296V29.2065C171.416 32.274 173.401 34.9992 176.411 34.9992C178.428 34.9902 180.425 34.5973 182.294 33.8416L183.047 33.4315ZM182.841 31.2455L182.355 31.3812C180.782 31.8655 179.072 32.2675 177.362 32.2675C175.172 32.2675 174.694 30.1542 174.694 28.8594V18.296C174.694 16.8655 175.446 15.2285 177.362 15.2285H182.841V31.2455ZM82.4121 33.4945L82.7541 35.2704L85.6956 34.7941C85.0798 29.3421 85.0117 23.8158 84.7378 18.3702C84.6001 15.1607 82.6828 12.5033 79.4706 12.5033H70.782V29.2065C70.782 32.274 72.7658 34.9992 75.7754 34.9992C77.7591 34.9992 79.8125 34.6585 81.5904 33.8416L82.4121 33.4945ZM82.0702 31.3133L81.5224 31.449C79.9537 31.9697 78.3136 32.2458 76.6603 32.2675C74.5388 32.2675 73.9926 30.0864 73.9926 28.8594V15.2301H78.8547C80.7007 15.2301 81.4478 17.006 81.5224 18.2976L82.0702 31.3133ZM59.152 19.2501L61.3399 18.4332C62.6365 18.0247 63.2556 16.7283 63.2556 15.2301V10.4594C63.2556 7.32409 61.0676 4.66669 57.9202 4.66669H48V28.8594C48 34.3114 51.3516 34.9943 56.6885 34.9943C61.9558 34.9943 65.377 34.313 65.377 28.8594V24.4293C65.377 22.2498 63.6672 20.2042 61.4777 19.728L59.152 19.2501ZM51.2106 22.0447H59.4242C61.3399 22.0447 62.1616 23.6802 62.1616 25.1122V29.5407C62.1616 31.2455 60.9979 31.9268 59.8359 32.1238C59.273 32.2376 58.6984 32.2836 58.1245 32.261H55.1829C54.632 32.2835 54.0805 32.2374 53.5411 32.1238C52.3094 31.9204 51.2155 31.2391 51.2155 29.5407L51.2106 22.0447ZM51.2106 19.3195V7.32409L57.2995 7.3919C59.2152 7.3919 59.9672 9.09677 59.9672 10.4594V16.2521C59.9672 17.6825 59.2152 19.3195 57.2995 19.3195H51.2106ZM195.634 27.1561H206.376V12.5033H197.687C194.54 12.5033 192.35 15.1623 192.35 18.296V28.5187C192.35 33.1538 194.472 35.3334 199.191 35.3334C201.928 35.3334 204.596 35.2655 207.333 35.0621V32.3353C204.596 32.4709 201.928 32.6081 199.191 32.6081C197.207 32.6081 195.625 31.3812 195.625 29.2L195.634 27.1561ZM195.634 24.7699V18.296C195.634 16.8655 196.387 15.2285 198.303 15.2285H203.165V24.7683L195.634 24.7699ZM111.207 7.73416H114.772V4.66669H111.207V7.73416Z" fill="#101010"/>
</g>
<g clip-path="url(#clip1_2682_2471)">
<path fill-rule="evenodd" clip-rule="evenodd" d="M39.8903 13.6543C39.6997 12.486 39.1963 11.3906 38.433 10.4837C37.6698 9.57678 36.6751 8.89204 35.554 8.50169L23.5145 4.13667L15.7648 1.32373L17.3021 10.1266C18.4384 10.1508 19.5562 10.417 20.5808 10.9073C21.6053 11.3976 22.5127 12.1007 23.2422 12.9693C26.1873 16.4673 25.5664 21.3783 22.1299 24.2674L13.3576 31.6141C13.0144 31.8996 12.5718 32.0382 12.1265 31.9998C11.6811 31.9614 11.2691 31.749 10.9802 31.409C10.7488 31.1062 10.6021 30.7476 10.5552 30.3698L6.52434 7.28054C6.47551 7.05885 6.47223 6.8296 6.5147 6.60661C6.55716 6.38362 6.64449 6.17151 6.77141 5.98307C6.89834 5.79462 7.06224 5.63375 7.25323 5.51014C7.44422 5.38653 7.65834 5.30274 7.88269 5.26383C8.10705 5.22493 8.33698 5.2317 8.55863 5.28375C8.78029 5.3358 8.98907 5.43204 9.1724 5.56668C9.35573 5.70132 9.50981 5.87156 9.62535 6.06715C9.74089 6.26274 9.81549 6.47962 9.84467 6.70472L13.4173 27.1763L19.9717 21.6927C21.9871 20.0083 22.3822 17.1887 20.659 15.1402C19.9332 14.2814 18.917 13.7173 17.8023 13.5545C16.6877 13.3917 15.5518 13.6415 14.6093 14.2566C13.9585 10.5347 13.3067 6.81282 12.6537 3.09092L9.06107 1.78704C7.95127 1.36739 6.74832 1.25442 5.5794 1.46005C4.41048 1.66568 3.31903 2.18228 2.42041 2.95524C1.50129 3.70272 0.801503 4.68348 0.394791 5.79416C-0.0119214 6.90485 -0.110492 8.10431 0.109467 9.26615L2.32413 21.8416L4.54874 34.4171C4.73885 35.5853 5.24219 36.6805 6.00552 37.5869C6.76885 38.4934 7.76379 39.1773 8.88509 39.5665C9.99489 39.9861 11.1978 40.0991 12.3668 39.8935C13.5357 39.6878 14.6271 39.1712 15.5257 38.3983L19.8687 34.758L27.7678 28.179L34.1129 22.8841L35.1688 22.0038L37.5827 19.9851C38.5043 19.2353 39.2053 18.251 39.6115 17.1366C40.0177 16.0221 40.1141 14.8189 39.8903 13.6543Z" fill="#19B16A"/>
<path fill-rule="evenodd" clip-rule="evenodd" d="M12.1157 0C12.2983 1.05568 12.4677 2.03525 12.6536 3.09093L12.1157 0Z" fill="white"/>
</g>
<defs>
<clipPath id="clip0_2682_2471">
<rect width="159.333" height="30.6667" fill="white" transform="translate(48 4.66669)"/>
</clipPath>
<clipPath id="clip1_2682_2471">
<rect width="40" height="40" fill="white"/>
</clipPath>
</defs>
</svg>
